<?xml version="1.0"?>
<svg xmlns="http://www.w3.org/2000/svg" xmlns:xlink="http://www.w3.org/1999/xlink" version="1.1" id="Capa_1" x="0px" y="0px" viewBox="0 0 499.152 499.152" style="enable-background:new 0 0 499.152 499.152;" xml:space="preserve" width="512px" height="512px" class=""><g><g>
	<circle style="fill:#BE2525" cx="347.152" cy="241.576" r="48" data-original="#FFA64D" class="active-path" data-old_color="#BC4545"/>
	<polygon style="fill:#BE2525" points="395.152,409.576 355.152,457.576 371.152,457.576 371.152,497.576 419.152,497.576    419.152,457.576 435.152,457.576  " data-original="#FFA64D" class="active-path" data-old_color="#BC4545"/>
</g><g>
	<path style="fill:##BE252fill:##BE252fill:#333333fill:#333333fill:#333333fill:#333333fill:#333333fill:#333333fill:#333333fill:#333333fill:#333333fill:#333333fill:#333333fill:#333333fill:#333333fill:#333333" d="M147.152,237.576c0-11.024-8.968-20-20-20s-20,8.976-20,20s8.968,20,20,20   S147.152,248.6,147.152,237.576z M127.152,241.576c-2.2,0-4-1.792-4-4s1.8-4,4-4c2.2,0,4,1.792,4,4   S129.352,241.576,127.152,241.576z" data-original="#333333" class="" data-old_color="##BE252fill:##BE252fill:#333333fill:#333333fill:#333333fill:#333333fill:#333333fill:#333333fill:#333333fill:#333333fill:#333333fill:#333333fill:#333333fill:#333333fill:#333333"/>
	<path style="fill:##BE252fill:##BE252fill:#333333fill:#333333fill:#333333fill:#333333fill:#333333fill:#333333fill:#333333fill:#333333fill:#333333fill:#333333fill:#333333fill:#333333fill:#333333fill:#333333" d="M215.152,217.576c-11.032,0-20,8.976-20,20s8.968,20,20,20s20-8.976,20-20   S226.184,217.576,215.152,217.576z M215.152,241.576c-2.2,0-4-1.792-4-4s1.8-4,4-4s4,1.792,4,4S217.352,241.576,215.152,241.576z" data-original="#333333" class="" data-old_color="##BE252fill:##BE252fill:#333333fill:#333333fill:#333333fill:#333333fill:#333333fill:#333333fill:#333333fill:#333333fill:#333333fill:#333333fill:#333333fill:#333333fill:#333333"/>
	<path style="fill:##BE252fill:##BE252fill:#333333fill:#333333fill:#333333fill:#333333fill:#333333fill:#333333fill:#333333fill:#333333fill:#333333fill:#333333fill:#333333fill:#333333fill:#333333fill:#333333" d="M179.152,313.576h-16c-8.824,0-16-7.176-16-16h-16c0,17.648,14.352,32,32,32h16   c17.648,0,32-14.352,32-32h-16C195.152,306.4,187.976,313.576,179.152,313.576z" data-original="#333333" class="" data-old_color="##BE252fill:##BE252fill:#333333fill:#333333fill:#333333fill:#333333fill:#333333fill:#333333fill:#333333fill:#333333fill:#333333fill:#333333fill:#333333fill:#333333fill:#333333"/>
	<path style="fill:##BE252fill:##BE252fill:#333333fill:#333333fill:#333333fill:#333333fill:#333333fill:#333333fill:#333333fill:#333333fill:#333333fill:#333333fill:#333333fill:#333333fill:#333333fill:#333333" d="M483.152,97.576h-5.432l-107.016-76.44c-2.096-11.112-11.84-19.56-23.552-19.56   c-11.72,0-21.464,8.448-23.552,19.568l-93.328,66.664c-10.992-3.96-22.784-6.232-35.12-6.232h-47.504   c-23.032,0-43.448,13.816-52,35.2l-2.024,5.064c-28.296,2.792-50.472,26.72-50.472,55.736v96c0,17.648,14.352,32,32,32h3.16   c6.752,26.08,24.112,47.936,47.296,60.48v4.28l-53.504,8.248C51.36,381.776,34.296,396.112,27.576,416L0,497.576h342.296   L314.736,416c-6.728-19.88-23.792-34.216-44.528-37.416l-50.2-7.736v-6.776c5.416-3.224,10.48-6.952,15.152-11.144v0.648h162.92   l-20,24h25.072v29.104l-8-9.6l-57.08,68.496h25.08v32h16v-48h-6.92l22.92-27.504l22.92,27.504h-6.92v48h16v-32h24v32h16v-120h25.08   l-20-24h10.92v-208c8.824,0,16-7.176,16-16v-16C499.152,104.752,491.976,97.576,483.152,97.576z M347.152,17.576   c4.416,0,8,3.592,8,8s-3.584,8-8,8s-8-3.592-8-8S342.736,17.576,347.152,17.576z M326.944,38.408   c4.264,6.696,11.704,11.168,20.208,11.168s15.944-4.472,20.208-11.16l82.824,59.16H251.152v0.504   c-1.376-0.88-2.768-1.728-4.184-2.544L326.944,38.408z M75.152,289.576c-8.824,0-16-7.176-16-16s7.176-16,16-16v24   c0,2.704,0.184,5.352,0.408,8H75.152z M75.152,233.576v8c-5.856,0-11.272,1.696-16,4.448v-68.448c0-22.056,17.944-40,40-40h5.416   l5.944-14.856c6.112-15.272,20.688-25.144,37.136-25.144h47.504c48.52,0,88,39.48,88,88v60.448c-4.728-2.752-10.144-4.448-16-4.448   V208.12c0-11.792-5.848-22.736-15.664-29.272c-9.648-6.432-21.832-7.696-32.576-3.392c-16.792,6.712-34.472,10.12-52.544,10.12   h-43.216C96.68,185.576,75.152,207.104,75.152,233.576z M339.152,178.112v55.464h-40v-34.192   C309.544,187.552,323.688,180.04,339.152,178.112z M267.152,281.576v-24c8.824,0,16,7.176,16,16s-7.176,16-16,16h-0.408   C266.968,286.928,267.152,284.28,267.152,281.576z M299.152,273.576v-24h45.432l49.504,35.36   c-11.696,12.656-28.384,20.64-46.936,20.64c-19.2,0-37.136-8.504-49.352-23.304C298.592,279.488,299.152,276.608,299.152,273.576z    M403.456,271.968l-48.304-34.512v-59.328c31.52,3.96,56,30.872,56,63.448C411.152,252.568,408.36,262.92,403.456,271.968z    M171.152,411.824l19.136,15.304l-6.448,6.448h-25.376l-6.448-6.448L171.152,411.824z M212.792,385.92l5.536,0.856L207.2,420.16   l-22.056-17.648L212.792,385.92z M163.152,449.576h16v32h-16V449.576z M135.112,420.16l-11.128-33.384l5.536-0.856l27.656,16.592   L135.112,420.16z M42.72,421.12c4.808-14.2,16.992-24.448,31.816-26.728l33.408-5.152l19.248,57.744l12.256-9.808l7.704,7.712   v36.688H90.016l5.768-39.104l-15.832-2.328l-6.112,41.432H22.304L42.72,421.12z M299.584,421.12L320,481.576h-51.544l-6.112-41.432   l-15.832,2.328l5.776,39.104h-57.136v-36.688l7.704-7.704l12.256,9.808l19.248-57.744l33.408,5.152   C282.592,396.68,294.776,406.92,299.584,421.12z M204,372.536l-32.848,19.712l-29.544-17.728v-1.64   c9.312,3.016,19.232,4.696,29.544,4.696c11.552,0,22.584-2.152,32.848-5.912L204,372.536L204,372.536z M171.152,361.576   c-44.112,0-80-35.888-80-80v-48c0-17.648,14.352-32,32-32h43.216c20.12,0,39.8-3.792,58.488-11.264   c5.856-2.344,12.504-1.656,17.76,1.848c5.344,3.568,8.536,9.536,8.536,15.96v73.456   C251.152,325.688,215.264,361.576,171.152,361.576z M451.152,361.576V464.28l-32.248-38.704h0.248v-64h-6.92l22.92-27.504   l22.92,27.504H451.152z M467.152,337.576h-8v0.304l-24-28.8l-24,28.8v-0.304H248.968c6.872-9.52,12-20.32,15.024-32h3.16   c8.576,0,16.344-3.432,22.088-8.944c15.08,15.872,35.8,24.944,57.912,24.944c44.112,0,80-35.888,80-80s-35.888-80-80-80   c-17.752,0-34.616,5.848-48.384,16.344c-0.832-11.376-3.424-22.272-7.632-32.344h176.016V337.576z M483.152,129.576h-200v0.832   c-3.808-6.056-8.192-11.696-13.128-16.832h213.128V129.576z" data-original="#333333" class="" data-old_color="##BE252fill:##BE252fill:#333333fill:#333333fill:#333333fill:#333333fill:#333333fill:#333333fill:#333333fill:#333333fill:#333333fill:#333333fill:#333333fill:#333333fill:#333333"/>
</g></g> </svg>
