<?xml version="1.0"?>
<svg xmlns="http://www.w3.org/2000/svg" xmlns:xlink="http://www.w3.org/1999/xlink" version="1.1" id="Capa_1" x="0px" y="0px" viewBox="0 0 496 496" style="enable-background:new 0 0 496 496;" xml:space="preserve" width="512px" height="512px" class=""><g><g>
	<path style="fill:#333333;" d="M68.688,0L0,68.688V320h136v-16H16V80h16v32h176V32H80V16h144v96h16V0H68.688z M64,27.312V64H27.312   L64,27.312z M192,48v48H48V80h32V48H192z" data-original="#333333" class=""/>
	<path style="fill:#333333;" d="M112,128H32v80h80V128z M96,192H48v-48h48V192z" data-original="#333333" class=""/>
	<rect x="32" y="240" style="fill:#333333;" width="56" height="16" data-original="#333333" class=""/>
	<rect x="32" y="272" style="fill:#333333;" width="56" height="16" data-original="#333333" class=""/>
	<rect x="408" y="208" style="fill:#333333;" width="56" height="16" data-original="#333333" class=""/>
	<rect x="448" y="240" style="fill:#333333;" width="16" height="16" data-original="#333333" class=""/>
	<path style="fill:#333333;" d="M360,176v16h120v224h-16v-32H288v80h128v16H272v-96h-16v112h171.312L496,427.312V176H360z    M468.688,432L432,468.688V432H468.688z M304,448v-48h144v16h-32v32H304z" data-original="#333333" class=""/>
	<path style="fill:#333333;" d="M384,368h80v-80h-80V368z M400,304h48v48h-48V304z" data-original="#333333" class=""/>
</g><path style="fill:#AF3131" d="M384,288v-80h-31.424c-0.728-1.88-1.512-3.768-2.36-5.64l22.232-22.24l-56.568-56.568l-22.24,22.232  c-1.872-0.84-3.76-1.632-5.64-2.36V112h-80v31.424c-1.88,0.728-3.768,1.512-5.64,2.36l-22.24-22.232l-56.568,56.568l22.232,22.24  c-0.84,1.872-1.632,3.76-2.36,5.64H112v80h31.424c0.728,1.88,1.512,3.768,2.36,5.64l-22.232,22.24l56.568,56.568l22.24-22.232  c1.872,0.84,3.76,1.632,5.64,2.36V384h80v-31.424c1.88-0.728,3.768-1.512,5.64-2.36l22.24,22.232l56.568-56.568l-22.232-22.24  c0.84-1.872,1.632-3.76,2.36-5.64H384z M248,312c-35.344,0-64-28.656-64-64s28.656-64,64-64s64,28.656,64,64S283.344,312,248,312z" data-original="#FFA64D" class="active-path" data-old_color="#020101"/><g>
	<path style="fill:#333333;" d="M248,320c-39.696,0-72-32.296-72-72c0-39.696,32.304-72,72-72s72,32.304,72,72   C320,287.704,287.696,320,248,320z M248,192c-30.88,0-56,25.12-56,56c0,30.872,25.12,56,56,56s56-25.128,56-56   C304,217.12,278.88,192,248,192z" data-original="#333333" class=""/>
	<rect x="408" y="240" style="fill:#333333;" width="24" height="16" data-original="#333333" class=""/>
	<path style="fill:#333333;" d="M192,416c-11,0-20.712,5.584-26.48,14.056c-37.752-17.168-69.848-46.032-90.704-82.064   l-13.848,8.016c22.768,39.344,57.944,70.792,99.312,89.248c-0.08,0.92-0.28,1.808-0.28,2.744c0,17.648,14.352,32,32,32   s32-14.352,32-32S209.648,416,192,416z M192,464c-8.824,0-16-7.176-16-16s7.176-16,16-16s16,7.176,16,16S200.824,464,192,464z" data-original="#333333" class=""/>
	<path style="fill:#333333;" d="M335.728,50.696C335.808,49.792,336,48.92,336,48c0-17.648-14.352-32-32-32s-32,14.352-32,32   s14.352,32,32,32c11.024,0,20.76-5.6,26.512-14.104c29.272,13.304,55.16,33.56,75.072,59.04l12.608-9.848   C396.376,87.168,367.912,65.048,335.728,50.696z M304,64c-8.824,0-16-7.176-16-16s7.176-16,16-16s16,7.176,16,16S312.824,64,304,64   z" data-original="#333333" class=""/>
	<path style="fill:#333333;" d="M421.176,148.008c-2.424-4.192-5.04-8.36-7.792-12.4l13.224-9c2.968,4.352,5.8,8.856,8.416,13.384   L421.176,148.008z" data-original="#333333" class=""/>
</g></g> </svg>
